<svg width="68" height="68" viewBox="0 0 68 68" fill="none" xmlns="http://www.w3.org/2000/svg">
<path d="M2.14453 21.4805C0.714844 21.4805 0 20.7422 0 19.2656V10.2305C0 6.83203 0.867188 4.27734 2.60156 2.56641C4.33594 0.855469 6.91406 0 10.3359 0H19.3711C20.8477 0 21.5859 0.714844 21.5859 2.14453C21.5859 3.59766 20.8477 4.32422 19.3711 4.32422H10.4414C8.44922 4.32422 6.92578 4.83984 5.87109 5.87109C4.83984 6.90234 4.32422 8.4375 4.32422 10.4766V19.2656C4.32422 20.7422 3.59766 21.4805 2.14453 21.4805ZM65.0742 21.4805C63.6445 21.4805 62.9297 20.7422 62.9297 19.2656V10.4766C62.9297 8.4375 62.3906 6.90234 61.3125 5.87109C60.2344 4.83984 58.7227 4.32422 56.7773 4.32422H47.8828C46.4062 4.32422 45.668 3.59766 45.668 2.14453C45.668 0.714844 46.4062 0 47.8828 0H56.8828C60.3281 0 62.918 0.867188 64.6523 2.60156C66.3867 4.3125 67.2539 6.85547 67.2539 10.2305V19.2656C67.2539 20.7422 66.5273 21.4805 65.0742 21.4805ZM10.3359 67.2188C6.91406 67.2188 4.33594 66.3516 2.60156 64.6172C0.867188 62.9062 0 60.3516 0 56.9531V47.9531C0 46.4766 0.714844 45.7383 2.14453 45.7383C3.59766 45.7383 4.32422 46.4766 4.32422 47.9531V56.7422C4.32422 58.7812 4.83984 60.3164 5.87109 61.3477C6.92578 62.3789 8.44922 62.8945 10.4414 62.8945H19.3711C20.8477 62.8945 21.5859 63.6211 21.5859 65.0742C21.5859 66.5039 20.8477 67.2188 19.3711 67.2188H10.3359ZM47.8828 67.2188C46.4062 67.2188 45.668 66.5039 45.668 65.0742C45.668 63.6211 46.4062 62.8945 47.8828 62.8945H56.7773C58.7227 62.8945 60.2344 62.3789 61.3125 61.3477C62.3906 60.3164 62.9297 58.7812 62.9297 56.7422V47.9531C62.9297 46.4766 63.6445 45.7383 65.0742 45.7383C66.5273 45.7383 67.2539 46.4766 67.2539 47.9531V56.9531C67.2539 60.3516 66.3867 62.9062 64.6523 64.6172C62.918 66.3516 60.3281 67.2188 56.8828 67.2188H47.8828ZM20.5312 30.7969C19.9453 30.7969 19.4531 30.6094 19.0547 30.2344C18.6797 29.8359 18.4922 29.332 18.4922 28.7227V23.4141C18.4922 22.8281 18.6797 22.3359 19.0547 21.9375C19.4531 21.5391 19.9453 21.3398 20.5312 21.3398C21.1406 21.3398 21.6445 21.5391 22.043 21.9375C22.4414 22.3359 22.6406 22.8281 22.6406 23.4141V28.7227C22.6406 29.332 22.4414 29.8359 22.043 30.2344C21.6445 30.6094 21.1406 30.7969 20.5312 30.7969ZM30.7617 39.0234C30.0117 39.0234 29.4375 38.8594 29.0391 38.5312C28.6641 38.1797 28.4766 37.7109 28.4766 37.125C28.4766 36.6094 28.6406 36.1875 28.9688 35.8594C29.2969 35.5078 29.7188 35.332 30.2344 35.332H31.4297C31.6875 35.332 31.9102 35.25 32.0977 35.0859C32.3086 34.9219 32.4141 34.6758 32.4141 34.3477V23.0977C32.4141 22.582 32.5781 22.1602 32.9062 21.832C33.2578 21.4805 33.7031 21.3047 34.2422 21.3047C34.7578 21.3047 35.1797 21.4805 35.5078 21.832C35.8594 22.1602 36.0352 22.582 36.0352 23.0977V34.0312C36.0352 35.6719 35.6133 36.9141 34.7695 37.7578C33.9258 38.6016 32.6953 39.0234 31.0781 39.0234C31.0078 39.0234 30.9492 39.0234 30.9023 39.0234C30.8555 39.0234 30.8086 39.0234 30.7617 39.0234ZM46.4414 30.7969C45.8555 30.7969 45.3633 30.6094 44.9648 30.2344C44.5664 29.8359 44.3672 29.332 44.3672 28.7227V23.4141C44.3672 22.8281 44.5664 22.3359 44.9648 21.9375C45.3633 21.5391 45.8555 21.3398 46.4414 21.3398C47.0508 21.3398 47.5547 21.5391 47.9531 21.9375C48.3516 22.3359 48.5508 22.8281 48.5508 23.4141V28.7227C48.5508 29.332 48.3516 29.8359 47.9531 30.2344C47.5547 30.6094 47.0508 30.7969 46.4414 30.7969ZM33.3633 50.3789C31.3242 50.3789 29.3086 49.9805 27.3164 49.1836C25.3242 48.3633 23.625 47.1797 22.2188 45.6328C22.0547 45.4453 21.9141 45.2461 21.7969 45.0352C21.7031 44.8008 21.6562 44.5547 21.6562 44.2969C21.6562 43.7578 21.832 43.3242 22.1836 42.9961C22.5352 42.668 22.957 42.5039 23.4492 42.5039C23.7773 42.5039 24.0586 42.5742 24.293 42.7148C24.5273 42.8555 24.7617 43.043 24.9961 43.2773C26.0508 44.332 27.3164 45.1758 28.793 45.8086C30.2695 46.4414 31.793 46.7578 33.3633 46.7578C34.957 46.7578 36.4922 46.4414 37.9688 45.8086C39.4688 45.1523 40.7109 44.3086 41.6953 43.2773C42.2109 42.7617 42.7266 42.5039 43.2422 42.5039C43.7578 42.5039 44.1914 42.668 44.543 42.9961C44.8945 43.3242 45.0703 43.7578 45.0703 44.2969C45.0703 44.6016 45.0117 44.8711 44.8945 45.1055C44.8008 45.3164 44.6719 45.5039 44.5078 45.668C43.0312 47.1445 41.3086 48.3047 39.3398 49.1484C37.3945 49.9688 35.4023 50.3789 33.3633 50.3789Z" fill="#A1F293"/>
</svg>
