<svg width="60" height="60" viewBox="0 0 60 60" fill="none" xmlns="http://www.w3.org/2000/svg">
<path d="M40.5464 23.5245L40.7034 26.5204C40.7612 27.6235 39.9138 28.5646 38.8108 28.6224C37.7077 28.6802 36.7667 27.8328 36.7089 26.7298L36.5518 23.7339L40.5464 23.5245Z" fill="#37C058" stroke="#37C058"/>
<path d="M17.5493 24.0792L17.7297 27.5208C17.7872 28.6237 16.94 29.5649 15.8371 29.6227C14.7342 29.6805 13.7932 28.833 13.7351 27.7301L13.5548 24.2886L17.5493 24.0792Z" fill="#37C058" stroke="#37C058"/>
<circle cx="30" cy="30" r="28" stroke="#37C058" stroke-width="4"/>
<path d="M25.2976 21.4915C24.6033 21.5 24.0381 22.0787 24.046 22.7727L24.1663 33.2658C24.1866 35.0316 25.4844 36.491 27.2315 36.7121L27.2431 36.7139L28.7496 36.9421C29.4241 37.0442 30.0506 36.5301 30.0867 35.8454L30.0944 35.7038C30.1278 35.0713 29.5841 34.5753 28.9558 34.6648C27.8629 34.8205 26.8675 34.0756 26.7172 32.9896L26.6466 32.4808L26.6431 32.4496L26.6425 32.4183L26.5183 22.6819C26.5098 22.0119 25.9681 21.4836 25.2976 21.4915Z" fill="#37C058" stroke="#37C058"/>
<path d="M22.6027 40.271C22.6517 40.0189 22.8958 39.8542 23.148 39.9032L34.9917 42.2054C35.2462 42.2549 35.4125 42.5013 35.363 42.7558C34.7802 45.7541 31.8771 47.7123 28.8788 47.1295L26.9797 46.7603C23.9791 46.1771 22.0194 43.2717 22.6027 40.271Z" fill="#37C058"/>
</svg>
